<?xml version="1.0" encoding="UTF-8"?>
<svg width="148px" height="75px" viewBox="0 0 148 75" version="1.1" xmlns="http://www.w3.org/2000/svg" xmlns:xlink="http://www.w3.org/1999/xlink">
    <!-- Generator: Sketch 46.2 (44496) - http://www.bohemiancoding.com/sketch -->
    <title>Logo@3x</title>
    <desc>Created with Sketch.</desc>
    <defs></defs>
    <g id="Page-1" stroke="none" stroke-width="1" fill="none" fill-rule="evenodd">
        <g id="Desktop-HD" transform="translate(-646.000000, -68.000000)">
            <g id="Logo" transform="translate(646.000000, 68.000000)">
                <path d="M74.425,0.177 C74.283,0.106 74.141,0.035 74,0 C74.319,0.142 74.602,0.283 74.885,0.46 C74.744,0.354 74.602,0.248 74.425,0.177" id="Fill-1" fill="#A2822E"></path>
                <path d="M86.3441986,21.7464243 L81.8610226,18.8401488 L86.3441986,12.0931431 L86.3441986,21.7464243 Z M80.4742889,17.9427885 L74.8279592,14.283228 L74.8279592,2.34125354 L86.0213407,9.59444165 L80.4742889,17.9427885 Z M74.0000585,27.6824683 L68.4404946,19.3135393 L74.0000585,15.7116555 L79.5593884,19.3135393 L74.0000585,27.6824683 Z M61.6558014,21.7464243 L61.6558014,12.0931431 L66.1389774,18.8401488 L61.6558014,21.7464243 Z M73.1721577,2.34125354 L73.1721577,14.283228 L67.5257111,17.9427885 L61.9786593,9.59444165 L73.1721577,2.34125354 Z M87.9918145,9.27349897 C87.9918145,9.24454436 87.9876049,9.21570604 87.9793025,9.18698399 C87.9752098,9.16233187 87.9669074,9.13349355 87.958605,9.10872514 C87.9545122,9.08814295 87.9462098,9.07174697 87.9421171,9.05116477 C87.9296051,9.01814024 87.9131172,8.98941819 87.8965124,8.96057987 C87.8303271,8.84115663 87.7392347,8.73824567 87.6233519,8.66417303 L74.4884965,0.159424784 L74.4511942,0.134772666 C74.4511942,0.134772666 74.4471015,0.134772666 74.4471015,0.13070274 C74.4140088,0.110120547 74.3807993,0.0936082794 74.3436139,0.0770960115 C74.314614,0.0607000271 74.2856141,0.0482576844 74.2525214,0.040117834 C74.091034,-0.0133726113 73.9130587,-0.0133726113 73.7515713,0.040117834 C73.7184787,0.0482576844 73.685386,0.0607000271 73.6563861,0.0770960115 C73.6192007,0.0936082794 73.5861081,0.110120547 73.5528985,0.13070274 C73.5528985,0.134772666 73.5488058,0.134772666 73.5488058,0.134772666 L73.5115035,0.159424784 L60.3766481,8.66417303 C60.335253,8.69289507 60.293858,8.7217334 60.2607653,8.75882786 C60.2524629,8.76301407 60.2483702,8.767084 60.2400678,8.77534013 C60.2027655,8.80824838 60.1738825,8.84941277 60.1448826,8.89057715 C60.1158827,8.92767162 60.0951852,8.968836 60.0785804,9.0098841 C60.0703949,9.02639637 60.0620926,9.03872243 60.0578829,9.0552347 C60.041395,9.09232916 60.0289999,9.12930734 60.0206975,9.17047172 C60.0206975,9.17465793 60.0164879,9.18279778 60.0164879,9.18698399 C60.0123951,9.2074499 60.0081855,9.22814838 60.0081855,9.2528005 C60.0040927,9.28570875 60,9.318617 60,9.35164154 L60,23.2654366 C60,23.5659134 60.1655801,23.8417381 60.4346479,23.9858134 C60.558833,24.0558161 60.6954132,24.0887244 60.8279007,24.0887244 C60.9851785,24.0887244 61.1424562,24.0433738 61.2791534,23.9529052 L67.0496682,20.2150859 L73.308738,29.6295205 C73.4618061,29.8601109 73.7226883,30 74.0000585,30 C74.2773117,30 74.5381939,29.8601109 74.691262,29.6295205 L80.9462391,20.2150859 L86.7167539,23.9529052 C86.8575438,24.0433738 87.0148215,24.0887244 87.1720993,24.0887244 C87.3045868,24.0887244 87.441167,24.0558161 87.5653521,23.9858134 C87.8344199,23.8417381 88,23.5659134 88,23.2654366 L88,9.35571146 C88,9.32687313 88,9.29815109 87.9918145,9.27349897 L87.9918145,9.27349897 Z" id="Fill-3" fill="#DEAB24"></path>
                <path d="M18.6233927,47.4113294 C18.6233927,46.5651659 18.4845134,45.773989 18.2068768,45.0380416 C17.9291181,44.3023369 17.5447264,43.671993 17.0544346,43.1476168 C16.5636542,42.6232405 15.971371,42.2093232 15.2770963,41.9057434 C14.5828217,41.6021635 13.8191684,41.4503129 12.9861365,41.4503129 C12.1529825,41.4503129 11.3936043,41.6021635 10.708857,41.9057434 C10.0238653,42.2093232 9.43145997,42.6232405 8.93164084,43.1476168 C8.43169956,43.671993 8.04730787,44.3023369 7.77919863,45.0380416 C7.51060081,45.773989 7.37648512,46.5651659 7.37648512,47.4113294 C7.37648512,48.2943935 7.51536449,49.1085119 7.79312321,49.8536845 C8.07075979,50.5987357 8.45478505,51.2383047 8.94556542,51.7715419 C9.4358572,52.305386 10.0238653,52.7236732 10.708857,53.0273744 C11.3936043,53.3308328 12.1529825,53.4825621 12.9861365,53.4825621 C13.8191684,53.4825621 14.578058,53.3308328 15.2632939,53.0273744 C15.9479191,52.7236732 16.5406909,52.305386 17.04051,51.7715419 C17.5404513,51.2383047 17.9291181,50.5987357 18.2068768,49.8536845 C18.4845134,49.1085119 18.6233927,48.2943935 18.6233927,47.4113294 M26,47.3995553 C26,49.276021 25.6738717,50.9911681 25.0219815,52.5435402 C24.3697248,54.0966406 23.4649936,55.4256672 22.3072991,56.5314699 C21.1492382,57.6372725 19.7724149,58.4919329 18.1763404,59.0950869 C16.5797774,59.6983623 14.8488544,60 12.9830829,60 C11.1168227,60 9.39164055,59.6983623 7.80668136,59.0950869 C6.22172216,58.4919329 4.85015104,57.6372725 3.69257873,56.5314699 C2.53439569,55.4256672 1.62966443,54.0966406 0.977896374,52.5435402 C0.325517591,50.9911681 0,49.276021 0,47.3995553 C0,45.5008764 0.325517591,43.785972 0.977896374,42.2554489 C1.62966443,40.72529 2.53439569,39.4235746 3.69257873,38.3511524 C4.85015104,37.2788516 6.22172216,36.4525949 7.80668136,35.8712899 C9.39164055,35.2905918 11.1168227,35 12.9830829,35 C14.8488544,35 16.5797774,35.2905918 18.1763404,35.8712899 C19.7724149,36.4525949 21.1492382,37.2788516 22.3072991,38.3511524 C23.4649936,39.4235746 24.3697248,40.72529 25.0219815,42.2554489 C25.6738717,43.785972 26,45.5008764 26,47.3995553" id="Fill-5" fill="#FFFFFF"></path>
                <polygon id="Fill-7" fill="#FFFFFF" points="54 37 44.745583 59 37.252128 59 28 37 35.4024975 37 40.9988555 50.307686 46.597382 37"></polygon>
                <polygon id="Fill-9" fill="#FFFFFF" points="129.93009 37 135 49 127.412816 49 122 37"></polygon>
                <polygon id="Fill-11" fill="#FFFFFF" points="148 37 138.48886 59 131 59 140.51114 37"></polygon>
                <polygon id="Fill-13" fill="#FFFFFF" points="50 59 59.254417 37 66.747872 37 76 59 68.5975025 59 63.0011445 45.692314 57.402618 59"></polygon>
                <polygon id="Fill-15" fill="#FFFFFF" points="99 59 108.254417 37 115.747872 37 125 59 117.597502 59 112.001144 45.692314 106.402618 59"></polygon>
                <polygon id="Fill-17" fill="#FFFFFF" points="97 52.0640739 94.3460314 59 79 59 79 37 86.3841255 37 86.3841255 52.0640739"></polygon>
                <path d="M33.1856278,71.9492296 L31.9778937,68.6948724 L30.7479914,71.9492296 L33.1856278,71.9492296 Z M31.4127901,67 L32.6205242,67 L36,75 L34.4043841,75 L33.6732046,73.1694872 L30.2715606,73.1694872 L29.5624255,75 L28,75 L31.4127901,67 Z" id="Fill-19" fill="#FFFFFF"></path>
                <polygon id="Fill-21" fill="#FFFFFF" points="43 67 44.5302807 67 46.0494068 72.8755999 46.0715919 72.8755999 47.8014152 67 49.2429552 67 50.9395626 72.8755999 50.9617478 72.8755999 52.5140897 67 54 67 51.704641 75 50.3518416 75 48.5110926 69 48.4889074 69 46.6482823 75 45.295359 75"></polygon>
                <path d="M69.1856278,71.9492296 L67.9778937,68.6948724 L66.7479914,71.9492296 L69.1856278,71.9492296 Z M67.4127901,67 L68.6205242,67 L72,75 L70.4043841,75 L69.6732046,73.1694872 L66.2715606,73.1694872 L65.5624255,75 L64,75 L67.4127901,67 Z" id="Fill-23" fill="#FFFFFF"></path>
                <path d="M84.1441728,70.4463248 C84.3126674,70.4463248 84.4812667,70.4312958 84.6497614,70.4011114 C84.818256,70.3710533 84.9696919,70.3145996 85.1039643,70.2316241 C85.2380275,70.1489012 85.3488572,70.0301844 85.4363488,69.8755999 C85.5237358,69.7213943 85.5674816,69.5236171 85.5674816,69.2823945 C85.5674816,69.0641576 85.5267708,68.8851983 85.4457677,68.7457691 C85.3644508,68.6064663 85.2614702,68.4954534 85.1366167,68.4124779 C85.0117632,68.3296287 84.869851,68.2730487 84.7106706,68.2429907 C84.5514903,68.2128063 84.3970194,68.1976509 84.2471534,68.1976509 L83.1797765,68.1976509 L83.1797765,70.4463248 L84.1441728,70.4463248 Z M82,67 L84.3033531,67 C84.6154345,67 84.9182016,67.0395302 85.2115497,67.1185906 C85.5048979,67.1976509 85.7654889,67.3277343 85.9934277,67.5084617 C86.2212617,67.6893155 86.4038848,67.9264966 86.5411922,68.2202576 C86.6784997,68.5140187 86.7471534,68.8719374 86.7471534,69.2937611 C86.7471534,69.8739581 86.6114158,70.3465522 86.3398359,70.7119222 C86.0683607,71.0772922 85.6985097,71.3239454 85.2303876,71.4520081 L87,75 L85.5766912,75 L84.0411922,71.6101288 L83.1797765,71.6101288 L83.1797765,75 L82,75 L82,67 Z" id="Fill-25" fill="#FFFFFF"></path>
                <path d="M101.518698,73.7570093 C101.874804,73.7570093 102.231032,73.7138166 102.587381,73.6271786 C102.943365,73.5405405 103.264981,73.39366 103.552352,73.1864107 C103.839357,72.9792877 104.073836,72.6987876 104.255545,72.3445314 C104.437132,71.9906542 104.528048,71.542435 104.528048,71 C104.528048,70.4276332 104.437132,69.9603435 104.255545,69.5988886 C104.073836,69.2373074 103.839357,68.9547866 103.552352,68.7513261 C103.264981,68.5479919 102.943365,68.4086891 102.587381,68.3334175 C102.231032,68.258146 101.874804,68.2202576 101.518698,68.2202576 L100.373847,68.2202576 L100.373847,73.7570093 L101.518698,73.7570093 Z M99,67 L101.736847,67 C102.238344,67 102.743497,67.0678202 103.252429,67.2033342 C103.761116,67.3389745 104.219106,67.5631473 104.626275,67.8757262 C105.033323,68.1883051 105.363958,68.5988886 105.618545,69.1073503 C105.872889,69.6158121 106,70.2467795 106,71 C106,71.7005557 105.872889,72.3032331 105.618545,72.807906 C105.363958,73.3125789 105.033323,73.7270775 104.626275,74.0507704 C104.219106,74.3748421 103.761116,74.614044 103.252429,74.7683759 C102.743497,74.9227078 102.238344,75 101.736847,75 L99,75 L99,67 Z" id="Fill-27" fill="#FFFFFF"></path>
                <g id="Group-31" transform="translate(115.000000, 67.000000)" fill="#FFFFFF">
                    <path d="M4.10736957,1.82532537 C3.97769565,1.64025075 3.79454348,1.48526567 3.55791304,1.36060896 C3.32128261,1.23607164 3.08291304,1.17374328 2.84313043,1.17374328 C2.70052174,1.17374328 2.55780435,1.19332537 2.41530435,1.23237015 C2.27258696,1.27165373 2.14302174,1.33219104 2.02628261,1.41410149 C1.90954348,1.49601194 1.81378261,1.60287761 1.73943478,1.7344597 C1.66476087,1.8664 1.62758696,2.02484776 1.62758696,2.20992239 C1.62758696,2.38078806 1.65986957,2.52693731 1.72476087,2.64801194 C1.78954348,2.76908657 1.87878261,2.87225075 1.99226087,2.95762388 C2.10563043,3.04311642 2.24345652,3.11798209 2.40563043,3.18198209 C2.56758696,3.24610149 2.74595652,3.3103403 2.94041304,3.3743403 C3.16073913,3.45278806 3.38932609,3.54174328 3.62595652,3.64144478 C3.86258696,3.74126567 4.07976087,3.87284776 4.27758696,4.03678806 C4.47530435,4.20060896 4.63736957,4.40705672 4.76378261,4.65625075 C4.89019565,4.90568358 4.95345652,5.21553433 4.95345652,5.58568358 C4.95345652,5.99165373 4.88541304,6.34592239 4.74921739,6.64872836 C4.61302174,6.95141493 4.4315,7.2024 4.20476087,7.40180299 C3.97769565,7.60120597 3.71182609,7.75081791 3.40726087,7.8504 C3.10236957,7.95010149 2.7815,8.00001194 2.44443478,8.00001194 C1.99715217,8.00001194 1.55954348,7.90914627 1.1316087,7.72765373 C0.703782609,7.54592239 0.353673913,7.27726567 0.0812826087,6.92108657 L0.956608696,6.02365373 C1.12508696,6.28013134 1.35041304,6.48311642 1.63236957,6.63260896 C1.91443478,6.7822209 2.1916087,6.85696716 2.4638913,6.85696716 C2.6063913,6.85696716 2.75226087,6.83750448 2.9015,6.79810149 C3.05052174,6.75905672 3.18508696,6.69326567 3.30508696,6.60048955 C3.42508696,6.50807164 3.52226087,6.39225075 3.59693478,6.25338507 C3.67128261,6.1145194 3.70867391,5.94198209 3.70867391,5.73529552 C3.70867391,5.53589254 3.6663913,5.3702806 3.58226087,5.2384597 C3.49802174,5.10675821 3.38443478,4.99272836 3.24193478,4.89672836 C3.09921739,4.80048955 2.93073913,4.71690746 2.73628261,4.64562388 C2.54171739,4.5744597 2.33747826,4.49971343 2.12356522,4.42126567 C1.91595652,4.3502209 1.70856522,4.26472836 1.50106522,4.16490746 C1.29356522,4.06520597 1.10726087,3.93350448 0.941934783,3.76956418 C0.776608696,3.60586269 0.642043478,3.40478806 0.538347826,3.16610149 C0.434652174,2.92741493 0.382695652,2.6302209 0.382695652,2.27404179 C0.382695652,1.88944478 0.45573913,1.5583403 0.601608696,1.28060896 C0.747478261,1.00275821 0.938673913,0.773026866 1.17530435,0.591414925 C1.41193478,0.409922388 1.68106522,0.274638806 1.98247826,0.185564179 C2.284,0.0964895522 2.59030435,0.0519522388 2.9015,0.0519522388 C3.2516087,0.0519522388 3.6066087,0.119773134 3.9663913,0.255056716 C4.32628261,0.390220896 4.639,0.593325373 4.90486957,0.863892537 L4.10736957,1.82532537 Z" id="Fill-29"></path>
                </g>
            </g>
        </g>
    </g>
</svg>